<?xml version="1.0" encoding="UTF-8"?>
<svg width="40" height="40" version="1.1" viewBox="0 0 40 40" xmlns="http://www.w3.org/2000/svg" xmlns:xlink="http://www.w3.org/1999/xlink">
 <defs>
  <filter id="c" x="-.16" y="-.31" width="1.31" height="1.64" color-interpolation-filters="sRGB">
   <feGaussianBlur stdDeviation="1"/>
  </filter>
  <linearGradient id="b" x1="100" x2="100" y2="40" gradientTransform="translate(-60)" gradientUnits="userSpaceOnUse">
   <stop stop-color="#3f3f3f" offset="0"/>
   <stop stop-color="#1f1f1f" offset=".3"/>
   <stop stop-color="#1f1f1f" offset=".7"/>
   <stop stop-color="#3f3f3f" offset="1"/>
  </linearGradient>
  <radialGradient id="a" cx="80" cy="20" r="20" gradientTransform="rotate(-90 50 50)" gradientUnits="userSpaceOnUse">
   <stop stop-opacity="0" offset="0"/>
   <stop stop-opacity="0" offset=".35039"/>
   <stop stop-color="#3f3f3f" stop-opacity=".5" offset=".7"/>
   <stop stop-color="#3f3f3f" offset=".85"/>
   <stop stop-opacity="0" offset="1"/>
  </radialGradient>
 </defs>
 <circle cx="20" cy="20" r="20" fill="url(#b)" fill-rule="evenodd" style="paint-order:stroke fill markers"/>
 <circle cx="20" cy="20" r="20" fill="url(#a)" fill-rule="evenodd"/>
 <path d="m17 27-6-9m5-5-9 9m0 5v-14m28 7c0 4-3 7-6.5 7s-6.5-3-6.5-7 3-7 6.5-7 6.5 3 6.5 7z" fill="none" filter="url(#c)" stroke="#9f9f9f" stroke-linecap="round" stroke-linejoin="round" stroke-width="4"/>
 <path d="m17 27-6-9m5-5-9 9m0 5v-14m28 7c0 4-3 7-6.5 7s-6.5-3-6.5-7 3-7 6.5-7 6.5 3 6.5 7z" fill="none" stroke="#fff" stroke-linecap="round" stroke-linejoin="round" stroke-width="2"/>
</svg>
